<svg width="90" height="128" viewBox="0 0 90 128" fill="none" xmlns="http://www.w3.org/2000/svg">
<path d="M31.9629 13.3613H34.3262C34.2806 14.39 34.0723 15.2656 33.7012 15.9883C33.3301 16.7044 32.7962 17.2513 32.0996 17.6289C31.4095 18.0065 30.5664 18.1953 29.5703 18.1953C28.8151 18.1953 28.138 18.0586 27.5391 17.7852C26.9466 17.5117 26.4421 17.1178 26.0254 16.6035C25.6087 16.0827 25.2897 15.4479 25.0684 14.6992C24.8535 13.9505 24.7461 13.1009 24.7461 12.1504V9.63086C24.7461 8.68034 24.8568 7.83073 25.0781 7.08203C25.306 6.33333 25.6315 5.69857 26.0547 5.17773C26.4779 4.6569 26.9922 4.26302 27.5977 3.99609C28.2096 3.72266 28.8997 3.58594 29.668 3.58594C30.651 3.58594 31.4779 3.77474 32.1484 4.15234C32.819 4.52995 33.3366 5.08333 33.7012 5.8125C34.0658 6.54167 34.2773 7.43034 34.3359 8.47852H31.9727C31.9401 7.76888 31.8424 7.20247 31.6797 6.7793C31.5234 6.34961 31.2826 6.04036 30.957 5.85156C30.638 5.66276 30.2083 5.56836 29.668 5.56836C29.2188 5.56836 28.8314 5.65299 28.5059 5.82227C28.1868 5.99154 27.9232 6.24544 27.7148 6.58398C27.513 6.91602 27.36 7.33594 27.2559 7.84375C27.1582 8.34505 27.1094 8.93424 27.1094 9.61133V12.1504C27.1094 12.8014 27.1517 13.3776 27.2363 13.8789C27.321 14.3802 27.4577 14.8066 27.6465 15.1582C27.8353 15.5033 28.0859 15.7669 28.3984 15.9492C28.7109 16.125 29.1016 16.2129 29.5703 16.2129C30.1302 16.2129 30.5762 16.125 30.9082 15.9492C31.2467 15.7734 31.4974 15.4772 31.6602 15.0605C31.8229 14.6439 31.9238 14.0775 31.9629 13.3613ZM42.5293 14.3281C42.5293 14.0352 42.4967 13.7747 42.4316 13.5469C42.373 13.3125 42.2591 13.1009 42.0898 12.9121C41.9206 12.7233 41.6797 12.5378 41.3672 12.3555C41.0612 12.1732 40.6641 11.9876 40.1758 11.7988C39.6159 11.584 39.0918 11.3496 38.6035 11.0957C38.1217 10.8353 37.6953 10.5423 37.3242 10.2168C36.9596 9.88477 36.6732 9.4974 36.4648 9.05469C36.2565 8.61198 36.1523 8.09766 36.1523 7.51172C36.1523 6.93229 36.2533 6.40495 36.4551 5.92969C36.6634 5.44792 36.9564 5.03451 37.334 4.68945C37.7181 4.33789 38.1738 4.06771 38.7012 3.87891C39.2285 3.68359 39.8112 3.58594 40.4492 3.58594C41.3672 3.58594 42.1517 3.78125 42.8027 4.17188C43.4603 4.5625 43.9616 5.08659 44.3066 5.74414C44.6582 6.40169 44.834 7.13086 44.834 7.93164H42.4707C42.4707 7.4694 42.3991 7.05924 42.2559 6.70117C42.1126 6.3431 41.8913 6.06315 41.5918 5.86133C41.2923 5.65951 40.9049 5.55859 40.4297 5.55859C39.9935 5.55859 39.6322 5.64323 39.3457 5.8125C39.0658 5.98177 38.8574 6.21289 38.7207 6.50586C38.5905 6.79883 38.5254 7.13411 38.5254 7.51172C38.5254 7.77214 38.5807 8.00977 38.6914 8.22461C38.8021 8.43294 38.9616 8.625 39.1699 8.80078C39.3783 8.97656 39.6322 9.14258 39.9316 9.29883C40.2311 9.45508 40.5762 9.60482 40.9668 9.74805C41.6309 9.98893 42.2103 10.2559 42.7051 10.5488C43.1999 10.8418 43.6068 11.1706 43.9258 11.5352C44.2513 11.8932 44.4922 12.3001 44.6484 12.7559C44.8112 13.2116 44.8926 13.7292 44.8926 14.3086C44.8926 14.8945 44.7917 15.4284 44.5898 15.9102C44.3945 16.3854 44.1081 16.7923 43.7305 17.1309C43.3529 17.4694 42.8971 17.7331 42.3633 17.9219C41.8294 18.1042 41.2305 18.1953 40.5664 18.1953C39.9544 18.1953 39.3652 18.1042 38.7988 17.9219C38.2389 17.7396 37.7376 17.4629 37.2949 17.0918C36.8522 16.7142 36.5007 16.2422 36.2402 15.6758C35.9863 15.1094 35.8594 14.4453 35.8594 13.6836H38.2324C38.2324 14.1393 38.2878 14.5299 38.3984 14.8555C38.5091 15.1745 38.6686 15.4382 38.877 15.6465C39.0918 15.8483 39.3424 15.998 39.6289 16.0957C39.9219 16.1868 40.2474 16.2324 40.6055 16.2324C41.0482 16.2324 41.4095 16.1543 41.6895 15.998C41.9759 15.8353 42.1875 15.6107 42.3242 15.3242C42.4609 15.0378 42.5293 14.7057 42.5293 14.3281ZM53.1348 14.3281C53.1348 14.0352 53.1022 13.7747 53.0371 13.5469C52.9785 13.3125 52.8646 13.1009 52.6953 12.9121C52.526 12.7233 52.2852 12.5378 51.9727 12.3555C51.6667 12.1732 51.2695 11.9876 50.7812 11.7988C50.2214 11.584 49.6973 11.3496 49.209 11.0957C48.7272 10.8353 48.3008 10.5423 47.9297 10.2168C47.5651 9.88477 47.2786 9.4974 47.0703 9.05469C46.862 8.61198 46.7578 8.09766 46.7578 7.51172C46.7578 6.93229 46.8587 6.40495 47.0605 5.92969C47.2689 5.44792 47.5618 5.03451 47.9395 4.68945C48.3236 4.33789 48.7793 4.06771 49.3066 3.87891C49.834 3.68359 50.4167 3.58594 51.0547 3.58594C51.9727 3.58594 52.7572 3.78125 53.4082 4.17188C54.0658 4.5625 54.5671 5.08659 54.9121 5.74414C55.2637 6.40169 55.4395 7.13086 55.4395 7.93164H53.0762C53.0762 7.4694 53.0046 7.05924 52.8613 6.70117C52.7181 6.3431 52.4967 6.06315 52.1973 5.86133C51.8978 5.65951 51.5104 5.55859 51.0352 5.55859C50.599 5.55859 50.2376 5.64323 49.9512 5.8125C49.6712 5.98177 49.4629 6.21289 49.3262 6.50586C49.196 6.79883 49.1309 7.13411 49.1309 7.51172C49.1309 7.77214 49.1862 8.00977 49.2969 8.22461C49.4076 8.43294 49.5671 8.625 49.7754 8.80078C49.9837 8.97656 50.2376 9.14258 50.5371 9.29883C50.8366 9.45508 51.1816 9.60482 51.5723 9.74805C52.2363 9.98893 52.8158 10.2559 53.3105 10.5488C53.8053 10.8418 54.2122 11.1706 54.5312 11.5352C54.8568 11.8932 55.0977 12.3001 55.2539 12.7559C55.4167 13.2116 55.498 13.7292 55.498 14.3086C55.498 14.8945 55.3971 15.4284 55.1953 15.9102C55 16.3854 54.7135 16.7923 54.3359 17.1309C53.9583 17.4694 53.5026 17.7331 52.9688 17.9219C52.4349 18.1042 51.8359 18.1953 51.1719 18.1953C50.5599 18.1953 49.9707 18.1042 49.4043 17.9219C48.8444 17.7396 48.3431 17.4629 47.9004 17.0918C47.4577 16.7142 47.1061 16.2422 46.8457 15.6758C46.5918 15.1094 46.4648 14.4453 46.4648 13.6836H48.8379C48.8379 14.1393 48.8932 14.5299 49.0039 14.8555C49.1146 15.1745 49.2741 15.4382 49.4824 15.6465C49.6973 15.8483 49.9479 15.998 50.2344 16.0957C50.5273 16.1868 50.8529 16.2324 51.2109 16.2324C51.6536 16.2324 52.015 16.1543 52.2949 15.998C52.5814 15.8353 52.793 15.6107 52.9297 15.3242C53.0664 15.0378 53.1348 14.7057 53.1348 14.3281ZM59.6777 9.80664H60.8984C61.3151 9.80664 61.6569 9.71549 61.9238 9.5332C62.1973 9.3444 62.3991 9.08724 62.5293 8.76172C62.6595 8.4362 62.7246 8.05859 62.7246 7.62891C62.7246 7.1862 62.6628 6.80534 62.5391 6.48633C62.4219 6.16732 62.2428 5.92318 62.002 5.75391C61.7676 5.58464 61.4681 5.5 61.1035 5.5C60.791 5.5 60.5111 5.58138 60.2637 5.74414C60.0163 5.90039 59.821 6.12826 59.6777 6.42773C59.541 6.7207 59.4727 7.06901 59.4727 7.47266H57.1973C57.1973 6.71745 57.3633 6.04688 57.6953 5.46094C58.0273 4.875 58.4831 4.41602 59.0625 4.08398C59.6484 3.74544 60.3158 3.57617 61.0645 3.57617C61.8392 3.57617 62.5195 3.72917 63.1055 4.03516C63.6979 4.34115 64.1602 4.79362 64.4922 5.39258C64.8307 5.99154 65 6.73372 65 7.61914C65 8.0293 64.9219 8.44271 64.7656 8.85938C64.6094 9.27604 64.375 9.6569 64.0625 10.002C63.7565 10.3405 63.3691 10.6139 62.9004 10.8223C62.4382 11.0306 61.8913 11.1348 61.2598 11.1348H59.6777V9.80664ZM59.6777 11.6816V10.373H61.2598C61.9889 10.373 62.6009 10.4707 63.0957 10.666C63.597 10.8548 63.9974 11.1217 64.2969 11.4668C64.6029 11.8053 64.8242 12.1927 64.9609 12.6289C65.0977 13.0651 65.166 13.5273 65.166 14.0156C65.166 14.6797 65.0618 15.2721 64.8535 15.793C64.6452 16.3073 64.3555 16.7467 63.9844 17.1113C63.6133 17.4694 63.1771 17.7396 62.6758 17.9219C62.181 18.1042 61.6406 18.1953 61.0547 18.1953C60.5273 18.1953 60.026 18.1107 59.5508 17.9414C59.0755 17.7721 58.6523 17.5215 58.2812 17.1895C57.9167 16.8509 57.627 16.431 57.4121 15.9297C57.2038 15.4219 57.0996 14.8327 57.0996 14.1621H59.3652C59.3652 14.5788 59.4368 14.9466 59.5801 15.2656C59.7233 15.5846 59.9219 15.8353 60.1758 16.0176C60.4362 16.1934 60.7389 16.2812 61.084 16.2812C61.4551 16.2812 61.7741 16.1934 62.041 16.0176C62.3145 15.8418 62.5228 15.5846 62.666 15.2461C62.8158 14.9076 62.8906 14.4974 62.8906 14.0156C62.8906 13.4753 62.8092 13.0326 62.6465 12.6875C62.4902 12.3424 62.2656 12.0885 61.9727 11.9258C61.6797 11.763 61.3249 11.6816 60.9082 11.6816H59.6777Z" fill="#212121"/>
<path d="M13.2286 118.243L6.15942 38.9506H83.8407L76.7644 118.231L44.9529 127.05L13.2286 118.243Z" fill="#1572B6"/>
<path d="M45.0007 120.309L70.7063 113.182L76.7539 45.4334H45.0007V120.309Z" fill="#33A9DC"/>
<path d="M45.0007 74.161H57.8693L58.7581 64.2027H45.0007V54.4777H69.3865L69.1531 57.087L66.7624 83.8859H45.0007V74.161Z" fill="white"/>
<path d="M45.0584 99.4173L45.0155 99.4299L34.1853 96.5056L33.4927 88.7495H23.7319L25.0939 104.019L45.0141 109.548L45.0584 109.535V99.4173Z" fill="#EBEBEB"/>
<path d="M57.0425 83.4746L55.8711 96.4979L45.0247 99.4257V109.544L64.9611 104.019L65.1073 102.375L66.799 83.4746H57.0425Z" fill="white"/>
<path d="M45.0338 54.4777V64.2027H21.5438L21.349 62.0173L20.9061 57.087L20.6733 54.4777H45.0338ZM45.0008 74.1624V83.8874H34.3069L34.1122 81.702L33.6685 76.7717L33.4365 74.1624H45.0008Z" fill="#EBEBEB"/>
</svg>
