<svg width="468" height="58" viewBox="0 0 468 58" fill="none" xmlns="http://www.w3.org/2000/svg">
<path d="M6.64746 30.6465L29.0352 39.0889V47.4971L0.0507812 34.8164V29.1768L6.64746 30.6465ZM29.0352 23.7422L6.64746 32.3213L0.0507812 33.6885V28.0146L29.0352 15.3682V23.7422ZM432.321 3.23438L413.249 57.2725H406.584L425.69 3.23438H432.321ZM460.622 32.0137L437.893 23.6396V15.3682L467.492 28.0146V33.6885L460.622 32.0137ZM437.893 39.1914L460.69 30.6123L467.492 29.1426V34.8164L437.893 47.4971V39.1914Z" fill="#7E7E7E"/>
<path d="M71.5547 23.9131V30.9883H45.2363V23.9131H71.5547ZM47.5605 3.23438V53H38.5713V3.23438H47.5605ZM78.3223 3.23438V53H69.3672V3.23438H78.3223ZM103.923 53.6836C101.143 53.6836 98.6478 53.2279 96.4375 52.3164C94.2272 51.4049 92.3473 50.1403 90.7979 48.5225C89.2484 46.9046 88.0635 45.0133 87.2432 42.8486C86.4229 40.6611 86.0127 38.3027 86.0127 35.7734V34.4062C86.0127 31.5352 86.4229 28.9261 87.2432 26.5791C88.0635 24.2321 89.2256 22.2269 90.7295 20.5635C92.2562 18.8773 94.0449 17.5898 96.0957 16.7012C98.1693 15.7897 100.448 15.334 102.932 15.334C105.552 15.334 107.854 15.7783 109.836 16.667C111.841 17.5329 113.505 18.7747 114.826 20.3926C116.148 21.9876 117.139 23.8903 117.8 26.1006C118.483 28.3109 118.825 30.7604 118.825 33.4492V37.1064H90.0459V31.0225H110.314V30.373C110.269 28.9147 109.984 27.5703 109.46 26.3398C108.959 25.0866 108.173 24.084 107.102 23.332C106.031 22.5573 104.618 22.1699 102.863 22.1699C101.519 22.1699 100.323 22.4661 99.2744 23.0586C98.249 23.6283 97.3945 24.4486 96.7109 25.5195C96.0501 26.5905 95.5374 27.8779 95.1729 29.3818C94.8311 30.8857 94.6602 32.5605 94.6602 34.4062V35.7734C94.6602 37.3685 94.8766 38.8382 95.3096 40.1826C95.7653 41.527 96.4147 42.7005 97.2578 43.7031C98.1009 44.6829 99.1263 45.4577 100.334 46.0273C101.542 46.597 102.909 46.8818 104.436 46.8818C106.372 46.8818 108.104 46.4945 109.631 45.7197C111.18 44.945 112.525 43.8285 113.664 42.3701L118.107 46.8135C117.333 47.9756 116.296 49.0807 114.997 50.1289C113.698 51.1771 112.126 52.0316 110.28 52.6924C108.457 53.3532 106.338 53.6836 103.923 53.6836ZM134.24 0.5V53H125.593V0.5H134.24ZM152.287 0.5V53H143.64V0.5H152.287ZM159.567 34.9189V34.1328C159.567 31.4668 159.955 28.9945 160.729 26.7158C161.504 24.4144 162.621 22.4206 164.079 20.7344C165.56 19.0254 167.372 17.7038 169.514 16.7695C171.656 15.8125 174.082 15.334 176.794 15.334C179.528 15.334 181.966 15.8125 184.108 16.7695C186.273 17.7038 188.096 19.0254 189.577 20.7344C191.058 22.4206 192.186 24.4144 192.961 26.7158C193.736 28.9945 194.123 31.4668 194.123 34.1328V34.9189C194.123 37.585 193.736 40.0573 192.961 42.3359C192.186 44.6146 191.058 46.6084 189.577 48.3174C188.096 50.0036 186.285 51.3252 184.143 52.2822C182.023 53.2165 179.597 53.6836 176.862 53.6836C174.128 53.6836 171.69 53.2165 169.548 52.2822C167.406 51.3252 165.594 50.0036 164.113 48.3174C162.632 46.6084 161.504 44.6146 160.729 42.3359C159.955 40.0573 159.567 37.585 159.567 34.9189ZM168.181 34.1328V34.9189C168.181 36.5596 168.34 38.0977 168.659 39.5332C169.001 40.9688 169.525 42.2334 170.231 43.3271C170.938 44.4209 171.838 45.2868 172.932 45.9248C174.025 46.54 175.336 46.8477 176.862 46.8477C178.366 46.8477 179.654 46.54 180.725 45.9248C181.818 45.2868 182.707 44.4209 183.391 43.3271C184.097 42.2334 184.621 40.9688 184.963 39.5332C185.305 38.0977 185.476 36.5596 185.476 34.9189V34.1328C185.476 32.5378 185.305 31.0225 184.963 29.5869C184.621 28.1514 184.097 26.8753 183.391 25.7588C182.707 24.6423 181.818 23.765 180.725 23.127C179.631 22.4889 178.321 22.1699 176.794 22.1699C175.29 22.1699 173.991 22.4889 172.897 23.127C171.826 23.765 170.938 24.6423 170.231 25.7588C169.525 26.8753 169.001 28.1514 168.659 29.5869C168.34 31.0225 168.181 32.5378 168.181 34.1328ZM228.405 44.4551L236.711 16.0176H242.248L240.642 25.1777L232.268 53H227.448L228.405 44.4551ZM223.654 16.0176L230.046 44.5576L230.559 53H225.09L215.246 16.0176H223.654ZM250.007 44.1816L256.193 16.0176H264.602L254.758 53H249.289L250.007 44.1816ZM243.137 16.0176L251.34 44.1475L252.399 53H247.58L239.104 25.1777L237.565 16.0176H243.137ZM268.464 34.9189V34.1328C268.464 31.4668 268.851 28.9945 269.626 26.7158C270.401 24.4144 271.517 22.4206 272.976 20.7344C274.457 19.0254 276.268 17.7038 278.41 16.7695C280.552 15.8125 282.979 15.334 285.69 15.334C288.425 15.334 290.863 15.8125 293.005 16.7695C295.17 17.7038 296.993 19.0254 298.474 20.7344C299.955 22.4206 301.083 24.4144 301.857 26.7158C302.632 28.9945 303.02 31.4668 303.02 34.1328V34.9189C303.02 37.585 302.632 40.0573 301.857 42.3359C301.083 44.6146 299.955 46.6084 298.474 48.3174C296.993 50.0036 295.181 51.3252 293.039 52.2822C290.92 53.2165 288.493 53.6836 285.759 53.6836C283.024 53.6836 280.586 53.2165 278.444 52.2822C276.302 51.3252 274.491 50.0036 273.01 48.3174C271.529 46.6084 270.401 44.6146 269.626 42.3359C268.851 40.0573 268.464 37.585 268.464 34.9189ZM277.077 34.1328V34.9189C277.077 36.5596 277.237 38.0977 277.556 39.5332C277.897 40.9688 278.422 42.2334 279.128 43.3271C279.834 44.4209 280.734 45.2868 281.828 45.9248C282.922 46.54 284.232 46.8477 285.759 46.8477C287.263 46.8477 288.55 46.54 289.621 45.9248C290.715 45.2868 291.604 44.4209 292.287 43.3271C292.993 42.2334 293.518 40.9688 293.859 39.5332C294.201 38.0977 294.372 36.5596 294.372 34.9189V34.1328C294.372 32.5378 294.201 31.0225 293.859 29.5869C293.518 28.1514 292.993 26.8753 292.287 25.7588C291.604 24.6423 290.715 23.765 289.621 23.127C288.527 22.4889 287.217 22.1699 285.69 22.1699C284.187 22.1699 282.888 22.4889 281.794 23.127C280.723 23.765 279.834 24.6423 279.128 25.7588C278.422 26.8753 277.897 28.1514 277.556 29.5869C277.237 31.0225 277.077 32.5378 277.077 34.1328ZM318.332 23.332V53H309.719V16.0176H317.922L318.332 23.332ZM329.611 15.7783L329.509 23.8105C329.03 23.7194 328.483 23.651 327.868 23.6055C327.276 23.5599 326.695 23.5371 326.125 23.5371C324.712 23.5371 323.482 23.7308 322.434 24.1182C321.385 24.5055 320.508 25.0638 319.802 25.793C319.095 26.5221 318.549 27.3994 318.161 28.4248C317.797 29.4502 317.58 30.6009 317.512 31.877L315.598 31.8428C315.598 29.4958 315.826 27.3311 316.281 25.3486C316.76 23.3434 317.455 21.5889 318.366 20.085C319.3 18.5811 320.451 17.4189 321.818 16.5986C323.208 15.7555 324.826 15.334 326.672 15.334C327.173 15.334 327.709 15.3796 328.278 15.4707C328.848 15.5618 329.292 15.6644 329.611 15.7783ZM343.83 0.5V53H335.183V0.5H343.83ZM375.07 45.2412V0.5H383.752V53H375.891L375.07 45.2412ZM351.145 34.9189V34.2012C351.145 31.3984 351.475 28.8464 352.136 26.5449C352.797 24.2207 353.754 22.2269 355.007 20.5635C356.26 18.8773 357.787 17.5898 359.587 16.7012C361.387 15.7897 363.415 15.334 365.671 15.334C367.904 15.334 369.852 15.7783 371.516 16.667C373.179 17.5329 374.592 18.7861 375.754 20.4268C376.939 22.0446 377.884 23.9701 378.591 26.2031C379.297 28.4362 379.81 30.8971 380.129 33.5859V35.7051C379.833 38.3255 379.32 40.7409 378.591 42.9512C377.884 45.1387 376.939 47.0413 375.754 48.6592C374.592 50.2542 373.168 51.4961 371.481 52.3848C369.818 53.2507 367.858 53.6836 365.603 53.6836C363.369 53.6836 361.353 53.2165 359.553 52.2822C357.775 51.348 356.26 50.0378 355.007 48.3516C353.754 46.6654 352.797 44.6829 352.136 42.4043C351.475 40.1029 351.145 37.6077 351.145 34.9189ZM359.792 34.2012V34.9189C359.792 36.5824 359.94 38.1318 360.236 39.5674C360.533 40.9801 361 42.2334 361.638 43.3271C362.276 44.3981 363.096 45.2412 364.099 45.8564C365.124 46.4489 366.354 46.7451 367.79 46.7451C369.613 46.7451 371.117 46.3464 372.302 45.5488C373.487 44.7285 374.41 43.6348 375.07 42.2676C375.731 40.8776 376.175 39.3167 376.403 37.585V31.8086C376.267 30.4414 375.993 29.1768 375.583 28.0146C375.196 26.8525 374.66 25.8385 373.977 24.9727C373.293 24.1068 372.438 23.4346 371.413 22.9561C370.41 22.4775 369.226 22.2383 367.858 22.2383C366.423 22.2383 365.192 22.5573 364.167 23.1953C363.142 23.8105 362.31 24.665 361.672 25.7588C361.034 26.8298 360.555 28.0944 360.236 29.5527C359.94 30.9883 359.792 32.5378 359.792 34.2012ZM402.038 3.23438L401.115 38.2002H393.801L392.878 3.23438H402.038ZM392.639 48.9326C392.639 47.6338 393.072 46.5514 393.938 45.6855C394.803 44.7969 396 44.3525 397.526 44.3525C399.053 44.3525 400.249 44.7969 401.115 45.6855C402.004 46.5514 402.448 47.6338 402.448 48.9326C402.448 50.2087 402.004 51.291 401.115 52.1797C400.249 53.0684 399.053 53.5127 397.526 53.5127C396 53.5127 394.803 53.0684 393.938 52.1797C393.072 51.291 392.639 50.2087 392.639 48.9326Z" fill="#212529"/>
</svg>
