<svg width="90" height="128" viewBox="0 0 90 128" fill="none" xmlns="http://www.w3.org/2000/svg">
<path d="M23.4297 9.69922V11.6914H17.4434V9.69922H23.4297ZM18 3.78125V18H15.627V3.78125H18ZM25.2852 3.78125V18H22.9219V3.78125H25.2852ZM32.8438 3.78125V18H30.4805V3.78125H32.8438ZM36.4668 3.78125V5.77344H26.8965V3.78125H36.4668ZM39.1523 3.78125H41.3105L44.582 14.3574L47.8438 3.78125H49.8457L45.4707 18H43.6836L39.1523 3.78125ZM38.3418 3.78125H40.334L40.6562 12.834V18H38.3418V3.78125ZM48.8105 3.78125H50.8125V18H48.498V12.834L48.8105 3.78125ZM61.1348 16.0176V18H55.2266V16.0176H61.1348ZM55.8516 3.78125V18H53.4785V3.78125H55.8516ZM65.0312 11.4082L63.2148 10.9395L63.8789 3.78125H70.4316V5.82227H65.7637L65.4609 9.25C65.6432 9.11979 65.8874 8.99284 66.1934 8.86914C66.4993 8.73893 66.8444 8.67383 67.2285 8.67383C67.8079 8.67383 68.319 8.78451 68.7617 9.00586C69.2109 9.22721 69.5918 9.54622 69.9043 9.96289C70.2168 10.373 70.4512 10.8711 70.6074 11.457C70.7702 12.043 70.8516 12.707 70.8516 13.4492C70.8516 14.1068 70.7702 14.722 70.6074 15.2949C70.4447 15.8613 70.194 16.3626 69.8555 16.7988C69.5169 17.235 69.0938 17.5768 68.5859 17.8242C68.0846 18.0716 67.4987 18.1953 66.8281 18.1953C66.3203 18.1953 65.8353 18.1107 65.373 17.9414C64.9108 17.7656 64.4941 17.5052 64.123 17.1602C63.7585 16.8151 63.4622 16.3919 63.2344 15.8906C63.013 15.3828 62.8893 14.8001 62.8633 14.1426H65.0801C65.1257 14.5983 65.2233 14.9857 65.373 15.3047C65.5293 15.6237 65.7279 15.8678 65.9688 16.0371C66.2161 16.1999 66.4993 16.2812 66.8184 16.2812C67.1113 16.2812 67.3685 16.2129 67.5898 16.0762C67.8177 15.9329 68.0033 15.7311 68.1465 15.4707C68.2897 15.2103 68.3971 14.9043 68.4688 14.5527C68.5404 14.1947 68.5762 13.8008 68.5762 13.3711C68.5762 12.9609 68.5339 12.5866 68.4492 12.248C68.3711 11.903 68.2507 11.6068 68.0879 11.3594C67.9251 11.1055 67.7233 10.9102 67.4824 10.7734C67.2415 10.6367 66.9551 10.5684 66.623 10.5684C66.1868 10.5684 65.8613 10.653 65.6465 10.8223C65.4316 10.985 65.2266 11.1803 65.0312 11.4082Z" fill="#212121"/>
<path d="M13.3854 118.069L6.35065 39.1679H83.6494L76.6069 118.057L44.9529 126.832L13.3854 118.069Z" fill="#E44D26"/>
<path d="M45 120.125L70.5783 113.033L76.5963 45.6191H45V120.125Z" fill="#F16529"/>
<path d="M45 74.8824H32.1947L31.3101 64.9726H45V55.2962H20.7344L20.9665 57.8921L23.3444 84.5595H45V74.8824ZM45 100.014L44.9571 100.026L34.1803 97.1152L33.4919 89.3984H23.7769L25.1325 104.592L44.9557 110.095L45 110.083V100.014Z" fill="#EBEBEB"/>
<path d="M44.9662 74.8824V84.5595H56.8821L55.7592 97.1096L44.9662 100.023V110.091L64.8049 104.592L64.9505 102.958L67.2244 77.4812L67.4599 74.8824H64.8527H44.9662ZM44.9662 55.2962V64.9726H68.3409L68.535 62.7985L68.9766 57.8921L69.2079 55.2962H44.9662Z" fill="white"/>
</svg>
