<svg width="41" height="59" viewBox="0 0 41 59" fill="none" xmlns="http://www.w3.org/2000/svg">
<path d="M5.49121 10.4531H18.2598C20.9453 10.4531 23.2484 10.86 25.1689 11.6738C27.1058 12.4876 28.5869 13.6921 29.6123 15.2871C30.6377 16.8659 31.1504 18.819 31.1504 21.1465C31.1504 22.9531 30.8249 24.54 30.1738 25.9072C29.5228 27.2581 28.6032 28.3893 27.415 29.3008C26.2432 30.2122 24.8434 30.9202 23.2158 31.4248L21.2383 32.4258H9.88574L9.83691 27.3477H18.333C19.7653 27.3477 20.9453 27.0954 21.873 26.5908C22.8171 26.0863 23.5251 25.3945 23.9971 24.5156C24.4854 23.6367 24.7295 22.6357 24.7295 21.5127C24.7295 20.292 24.4935 19.234 24.0215 18.3389C23.5658 17.4437 22.8577 16.752 21.8975 16.2637C20.9372 15.7754 19.7246 15.5312 18.2598 15.5312H11.9121V46H5.49121V10.4531ZM25.6816 46L17.3809 30.0576L24.1436 30.0332L32.5664 45.6826V46H25.6816Z" fill="#21201E"/>
<path d="M0 47.9642L38 47.9991" stroke="black"/>
<path d="M38.4286 48.0105L28.1257 30.7824" stroke="black"/>
</svg>
