<svg width="120" height="126" viewBox="0 0 120 126" fill="none" xmlns="http://www.w3.org/2000/svg">
<path d="M37.4785 3.78125V18H35.1543L30.1348 8.15625V18H27.8398V3.78125H30.1348L35.1934 13.6934V3.78125H37.4785ZM49.8125 9.72852V12.1504C49.8125 13.153 49.6953 14.0319 49.4609 14.7871C49.2331 15.5423 48.901 16.1738 48.4648 16.6816C48.0352 17.1829 47.5143 17.5605 46.9023 17.8145C46.2969 18.0684 45.6198 18.1953 44.8711 18.1953C44.1289 18.1953 43.4518 18.0684 42.8398 17.8145C42.2344 17.5605 41.7103 17.1829 41.2676 16.6816C40.8314 16.1738 40.4928 15.5423 40.252 14.7871C40.0176 14.0319 39.9004 13.153 39.9004 12.1504V9.72852C39.9004 8.71289 40.0176 7.82422 40.252 7.0625C40.4863 6.29427 40.8216 5.65299 41.2578 5.13867C41.7005 4.62435 42.2246 4.23698 42.8301 3.97656C43.4421 3.71615 44.1159 3.58594 44.8516 3.58594C45.6003 3.58594 46.2773 3.71615 46.8828 3.97656C47.4948 4.23698 48.0189 4.62435 48.4551 5.13867C48.8913 5.65299 49.2266 6.29427 49.4609 7.0625C49.6953 7.82422 49.8125 8.71289 49.8125 9.72852ZM47.459 12.1504V9.70898C47.459 8.98633 47.4004 8.36784 47.2832 7.85352C47.1725 7.33268 47.0065 6.90951 46.7852 6.58398C46.5638 6.25195 46.2904 6.00781 45.9648 5.85156C45.6458 5.6888 45.2747 5.60742 44.8516 5.60742C44.4414 5.60742 44.0736 5.6888 43.748 5.85156C43.429 6.00781 43.1556 6.25195 42.9277 6.58398C42.7064 6.90951 42.5371 7.33268 42.4199 7.85352C42.3092 8.36784 42.2539 8.98633 42.2539 9.70898V12.1504C42.2539 12.86 42.3125 13.472 42.4297 13.9863C42.5469 14.4941 42.7161 14.9108 42.9375 15.2363C43.1654 15.5553 43.4421 15.793 43.7676 15.9492C44.0931 16.1055 44.4609 16.1836 44.8711 16.1836C45.2878 16.1836 45.6589 16.1055 45.9844 15.9492C46.3099 15.793 46.5801 15.5553 46.7949 15.2363C47.0163 14.9108 47.1823 14.4941 47.293 13.9863C47.4036 13.472 47.459 12.86 47.459 12.1504ZM55.7012 18H53.2305L53.25 16.0176H55.7012C56.4629 16.0176 57.0716 15.8776 57.5273 15.5977C57.9831 15.3112 58.3118 14.875 58.5137 14.2891C58.7155 13.7031 58.8164 12.9544 58.8164 12.043V9.72852C58.8164 9.02539 58.7578 8.42643 58.6406 7.93164C58.5299 7.43034 58.3542 7.02344 58.1133 6.71094C57.8789 6.39193 57.5697 6.15755 57.1855 6.00781C56.8014 5.85156 56.3392 5.77344 55.7988 5.77344H53.1816V3.78125H55.7988C56.6126 3.78125 57.3483 3.91146 58.0059 4.17188C58.6634 4.43229 59.2266 4.81641 59.6953 5.32422C60.1706 5.82552 60.5352 6.44727 60.7891 7.18945C61.043 7.93164 61.1699 8.78451 61.1699 9.74805V12.043C61.1699 13.0065 61.043 13.8594 60.7891 14.6016C60.5352 15.3372 60.1706 15.959 59.6953 16.4668C59.2201 16.9681 58.6471 17.349 57.9766 17.6094C57.306 17.8698 56.5475 18 55.7012 18ZM54.5879 3.78125V18H52.2148V3.78125H54.5879ZM71.502 16.0176V18H65.3301V16.0176H71.502ZM65.9551 3.78125V18H63.582V3.78125H65.9551ZM70.6719 9.69922V11.6523H65.3301V9.69922H70.6719ZM71.4434 3.78125V5.77344H65.3301V3.78125H71.4434ZM78.25 13.7227V3.78125H80.6133V13.7227C80.6133 14.6667 80.4408 15.474 80.0957 16.1445C79.7507 16.8086 79.2786 17.3164 78.6797 17.668C78.0807 18.0195 77.4004 18.1953 76.6387 18.1953C75.8704 18.1953 75.1836 18.0423 74.5781 17.7363C73.9792 17.4238 73.5072 16.9518 73.1621 16.3203C72.8171 15.6888 72.6445 14.888 72.6445 13.918H75.0273C75.0273 14.4714 75.0957 14.9173 75.2324 15.2559C75.3691 15.5879 75.5579 15.832 75.7988 15.9883C76.0462 16.138 76.3262 16.2129 76.6387 16.2129C76.9577 16.2129 77.2376 16.1185 77.4785 15.9297C77.7194 15.7344 77.9082 15.4512 78.0449 15.0801C78.1816 14.709 78.25 14.2565 78.25 13.7227ZM89.3242 14.3281C89.3242 14.0352 89.2917 13.7747 89.2266 13.5469C89.168 13.3125 89.054 13.1009 88.8848 12.9121C88.7155 12.7233 88.4746 12.5378 88.1621 12.3555C87.8561 12.1732 87.459 11.9876 86.9707 11.7988C86.4108 11.584 85.8867 11.3496 85.3984 11.0957C84.9167 10.8353 84.4902 10.5423 84.1191 10.2168C83.7546 9.88477 83.4681 9.4974 83.2598 9.05469C83.0514 8.61198 82.9473 8.09766 82.9473 7.51172C82.9473 6.93229 83.0482 6.40495 83.25 5.92969C83.4583 5.44792 83.7513 5.03451 84.1289 4.68945C84.513 4.33789 84.9688 4.06771 85.4961 3.87891C86.0234 3.68359 86.6061 3.58594 87.2441 3.58594C88.1621 3.58594 88.9466 3.78125 89.5977 4.17188C90.2552 4.5625 90.7565 5.08659 91.1016 5.74414C91.4531 6.40169 91.6289 7.13086 91.6289 7.93164H89.2656C89.2656 7.4694 89.194 7.05924 89.0508 6.70117C88.9076 6.3431 88.6862 6.06315 88.3867 5.86133C88.0872 5.65951 87.6999 5.55859 87.2246 5.55859C86.7884 5.55859 86.4271 5.64323 86.1406 5.8125C85.8607 5.98177 85.6523 6.21289 85.5156 6.50586C85.3854 6.79883 85.3203 7.13411 85.3203 7.51172C85.3203 7.77214 85.3757 8.00977 85.4863 8.22461C85.597 8.43294 85.7565 8.625 85.9648 8.80078C86.1732 8.97656 86.4271 9.14258 86.7266 9.29883C87.026 9.45508 87.3711 9.60482 87.7617 9.74805C88.4258 9.98893 89.0052 10.2559 89.5 10.5488C89.9948 10.8418 90.4017 11.1706 90.7207 11.5352C91.0462 11.8932 91.2871 12.3001 91.4434 12.7559C91.6061 13.2116 91.6875 13.7292 91.6875 14.3086C91.6875 14.8945 91.5866 15.4284 91.3848 15.9102C91.1895 16.3854 90.903 16.7923 90.5254 17.1309C90.1478 17.4694 89.6921 17.7331 89.1582 17.9219C88.6243 18.1042 88.0254 18.1953 87.3613 18.1953C86.7493 18.1953 86.1602 18.1042 85.5938 17.9219C85.0339 17.7396 84.5326 17.4629 84.0898 17.0918C83.6471 16.7142 83.2956 16.2422 83.0352 15.6758C82.7812 15.1094 82.6543 14.4453 82.6543 13.6836H85.0273C85.0273 14.1393 85.0827 14.5299 85.1934 14.8555C85.304 15.1745 85.4635 15.4382 85.6719 15.6465C85.8867 15.8483 86.1374 15.998 86.4238 16.0957C86.7168 16.1868 87.0423 16.2324 87.4004 16.2324C87.8431 16.2324 88.2044 16.1543 88.4844 15.998C88.7708 15.8353 88.9824 15.6107 89.1191 15.3242C89.2559 15.0378 89.3242 14.7057 89.3242 14.3281Z" fill="#212121"/>
<g clip-path="url(#clip0_39_200)">
<path d="M59.3227 125.38C58.9165 125.38 58.5373 125.272 58.1851 125.082L54.5825 122.942C54.0407 122.644 54.3116 122.536 54.4743 122.482C55.2055 122.238 55.341 122.184 56.0994 121.751C56.1807 121.696 56.2892 121.724 56.3703 121.778L59.1333 123.43C59.2416 123.484 59.3771 123.484 59.4582 123.43L70.2662 117.173C70.3745 117.119 70.4288 117.01 70.4288 116.875V104.388C70.4288 104.252 70.3745 104.144 70.2662 104.089L59.4582 97.8594C59.3499 97.805 59.2144 97.805 59.1333 97.8594L48.3253 104.089C48.217 104.144 48.1626 104.279 48.1626 104.387V116.875C48.1626 116.983 48.217 117.118 48.3253 117.173L51.2779 118.879C52.8761 119.692 53.8783 118.744 53.8783 117.796V105.471C53.8783 105.308 54.0137 105.146 54.2033 105.146H55.5847C55.7474 105.146 55.9098 105.281 55.9098 105.471V117.796C55.9098 119.936 54.745 121.182 52.7134 121.182C52.0905 121.182 51.603 121.182 50.2214 120.504L47.3773 118.879C46.673 118.473 46.2396 117.714 46.2396 116.902V104.415C46.2396 103.602 46.673 102.843 47.3773 102.437L58.1851 96.1799C58.8624 95.8007 59.7835 95.8007 60.4606 96.1799L71.2684 102.437C71.9726 102.843 72.4062 103.602 72.4062 104.415V116.902C72.4062 117.714 71.9726 118.473 71.2684 118.879L60.4606 125.136C60.1083 125.299 59.7019 125.38 59.3227 125.38ZM62.6545 116.794C57.9144 116.794 56.9391 114.627 56.9391 112.785C56.9391 112.622 57.0746 112.46 57.2642 112.46H58.6728C58.8352 112.46 58.9707 112.568 58.9707 112.73C59.1875 114.166 59.8104 114.87 62.6817 114.87C64.957 114.87 65.9324 114.356 65.9324 113.137C65.9324 112.432 65.6613 111.918 62.1129 111.566C59.1603 111.268 57.3183 110.618 57.3183 108.261C57.3183 106.067 59.1605 104.767 62.2483 104.767C65.7154 104.767 67.4221 105.959 67.6389 108.559C67.6389 108.64 67.6117 108.721 67.5576 108.803C67.5032 108.857 67.4221 108.911 67.3408 108.911H65.9322C65.7967 108.911 65.6613 108.803 65.6343 108.667C65.3092 107.178 64.4695 106.69 62.2483 106.69C59.7563 106.69 59.4582 107.557 59.4582 108.207C59.4582 108.992 59.8104 109.236 63.1692 109.669C66.501 110.103 68.0722 110.726 68.0722 113.055C68.045 115.439 66.0948 116.794 62.6545 116.794Z" fill="#539E43"/>
<path d="M25.7884 76.5415C25.7884 76.054 25.5175 75.5932 25.0841 75.3495L13.599 68.7402C13.4092 68.6317 13.1926 68.5775 12.9761 68.5504H12.8675C12.651 68.5504 12.4342 68.6317 12.2446 68.7402L0.759461 75.3495C0.325874 75.5932 0.0551758 76.0537 0.0551758 76.5415L0.0823628 94.3108C0.0823628 94.5545 0.217829 94.7983 0.434388 94.9068C0.651182 95.0423 0.92188 95.0423 1.11172 94.9068L7.93778 91.0062C8.37113 90.7624 8.64207 90.3019 8.64207 89.8144V81.4984C8.64207 81.0109 8.91276 80.5504 9.34635 80.3066L12.2446 78.6271C12.4614 78.4917 12.7051 78.4373 12.9489 78.4373C13.1926 78.4373 13.4364 78.4917 13.6262 78.6271L16.5244 80.3066C16.958 80.5504 17.2287 81.0107 17.2287 81.4984V89.8144C17.2287 90.3019 17.4997 90.7624 17.933 91.0062L24.7591 94.9068C24.8645 94.9732 24.9866 95.0084 25.1112 95.0084C25.2358 95.0084 25.3579 94.9732 25.4634 94.9068C25.6801 94.7983 25.8156 94.5545 25.8156 94.3108L25.7884 76.5415ZM80.9929 52.0813C80.7764 51.9728 80.5054 51.9728 80.3156 52.0813C80.099 52.2168 79.9635 52.4333 79.9635 52.6771V70.2842C79.9635 70.4466 79.8825 70.6091 79.7198 70.7176C79.5574 70.7987 79.3947 70.7987 79.2323 70.7176L76.361 69.0653C76.1505 68.9454 75.9125 68.8824 75.6702 68.8824C75.428 68.8824 75.1899 68.9454 74.9794 69.0653L63.4943 75.7017C63.0609 75.9455 62.79 76.406 62.79 76.8935V90.1392C62.79 90.6267 63.0609 91.0875 63.4943 91.3312L74.9794 97.9677C75.1899 98.0875 75.428 98.1506 75.6702 98.1506C75.9125 98.1506 76.1505 98.0875 76.361 97.9677L87.8462 91.3312C88.2795 91.0875 88.5504 90.6269 88.5504 90.1392V57.1196C88.5504 56.6049 88.2795 56.1446 87.8462 55.9006L80.9929 52.0813ZM79.9366 85.7783C79.9366 85.9137 79.8825 86.022 79.7739 86.0762L75.8464 88.3514C75.7915 88.3782 75.7313 88.3921 75.6702 88.3921C75.6092 88.3921 75.549 88.3782 75.4941 88.3514L71.5665 86.0762C71.458 86.022 71.4039 85.8866 71.4039 85.7783V81.2275C71.4039 81.092 71.458 80.9837 71.5665 80.9296L75.4941 78.6541C75.549 78.6273 75.6092 78.6134 75.6702 78.6134C75.7313 78.6134 75.7915 78.6273 75.8464 78.6541L79.7739 80.9296C79.8825 80.9835 79.9366 81.1192 79.9366 81.2275V85.7783ZM119.213 81.1192C119.647 80.8755 119.891 80.4149 119.891 79.9272V76.7039C119.891 76.2164 119.62 75.7559 119.213 75.5121L107.81 68.9028C107.599 68.783 107.361 68.72 107.119 68.72C106.877 68.72 106.639 68.783 106.428 68.9028L94.9429 75.5391C94.5093 75.7828 94.2386 76.2433 94.2386 76.7308V89.9768C94.2386 90.4643 94.5096 90.9248 94.9429 91.1686L106.347 97.6696C106.78 97.9133 107.295 97.9133 107.701 97.6696L114.609 93.8235C114.825 93.715 114.961 93.4713 114.961 93.2275C114.961 92.9838 114.825 92.74 114.609 92.6315L103.069 85.9951C102.852 85.8596 102.717 85.643 102.717 85.3993V81.2549C102.717 81.0112 102.852 80.7674 103.069 80.6589L106.672 78.6002C106.777 78.5338 106.899 78.4986 107.024 78.4986C107.149 78.4986 107.271 78.5338 107.376 78.6002L110.979 80.6589C111.196 80.7944 111.331 81.0109 111.331 81.2549V84.5054C111.331 84.7491 111.466 84.9929 111.683 85.1012C111.789 85.1676 111.911 85.2028 112.035 85.2028C112.16 85.2028 112.282 85.1676 112.387 85.1012L119.213 81.1192Z" fill="#333333"/>
<path d="M106.943 80.496C106.983 80.4695 107.03 80.4554 107.078 80.4554C107.126 80.4554 107.173 80.4695 107.214 80.496L109.408 81.7691C109.489 81.8235 109.543 81.9046 109.543 82.0129V84.5593C109.543 84.6676 109.489 84.7489 109.408 84.8031L107.214 86.0762C107.173 86.1027 107.126 86.1168 107.078 86.1168C107.03 86.1168 106.983 86.1027 106.943 86.0762L104.749 84.8031C104.667 84.7489 104.613 84.6676 104.613 84.5593V82.0131C104.613 81.9046 104.667 81.8233 104.749 81.7694L106.943 80.496Z" fill="#539E43"/>
<path d="M44.9935 68.957C44.783 68.8372 44.545 68.7742 44.3028 68.7742C44.0606 68.7742 43.8226 68.8372 43.6121 68.957L32.2083 75.5388C31.7748 75.7826 31.531 76.2431 31.531 76.7306V89.9224C31.531 90.4099 31.8019 90.8705 32.2083 91.1142L43.6121 97.6965C43.8226 97.8163 44.0606 97.8793 44.3028 97.8793C44.545 97.8793 44.783 97.8163 44.9935 97.6965L56.3976 91.1142C56.8309 90.8705 57.0749 90.4099 57.0749 89.9224V76.7308C57.0749 76.2434 56.8037 75.7828 56.3976 75.5391L44.9935 68.957Z" fill="url(#paint0_linear_39_200)"/>
</g>
<defs>
<linearGradient id="paint0_linear_39_200" x1="1773.32" y1="577.736" x2="523.35" y2="2541.8" gradientUnits="userSpaceOnUse">
<stop stop-color="#41873F"/>
<stop offset="0.3288" stop-color="#418B3D"/>
<stop offset="0.6352" stop-color="#419637"/>
<stop offset="0.9319" stop-color="#3FA92D"/>
<stop offset="1" stop-color="#3FAE2A"/>
</linearGradient>
<clipPath id="clip0_39_200">
<rect width="120" height="73.5925" fill="white" transform="translate(0 52)"/>
</clipPath>
</defs>
</svg>
