<svg width="90" height="125" viewBox="0 0 90 125" fill="none" xmlns="http://www.w3.org/2000/svg">
<path d="M23.7793 3.78125H28.0762C29.0137 3.78125 29.8079 3.94401 30.459 4.26953C31.11 4.59505 31.6048 5.07682 31.9434 5.71484C32.2884 6.34635 32.4609 7.13086 32.4609 8.06836C32.4609 8.77799 32.3535 9.40299 32.1387 9.94336C31.9303 10.4837 31.6276 10.9395 31.2305 11.3105C30.8333 11.6751 30.3548 11.9583 29.7949 12.1602L29.1016 12.541H25.4688L25.459 10.5488H28.0176C28.4798 10.5488 28.8639 10.4479 29.1699 10.2461C29.4759 10.0443 29.7038 9.76432 29.8535 9.40625C30.0098 9.04818 30.0879 8.64128 30.0879 8.18555C30.0879 7.69727 30.0195 7.27409 29.8828 6.91602C29.7461 6.55143 29.5312 6.27148 29.2383 6.07617C28.9453 5.87435 28.5579 5.77344 28.0762 5.77344H26.1523V18H23.7793V3.78125ZM30.4004 18L27.6953 11.6133L30.166 11.6035L32.9395 17.873V18H30.4004ZM38.4863 18.1953C37.8027 18.1953 37.194 18.0944 36.6602 17.8926C36.1263 17.6842 35.6738 17.3783 35.3027 16.9746C34.9316 16.5645 34.6484 16.0632 34.4531 15.4707C34.2578 14.8717 34.1602 14.1784 34.1602 13.3906V12.375C34.1602 11.4831 34.2611 10.7148 34.4629 10.0703C34.6712 9.41927 34.9577 8.88542 35.3223 8.46875C35.6868 8.05208 36.1165 7.74284 36.6113 7.54102C37.1126 7.33919 37.6562 7.23828 38.2422 7.23828C38.9062 7.23828 39.4824 7.3457 39.9707 7.56055C40.459 7.77539 40.8594 8.09766 41.1719 8.52734C41.4909 8.95703 41.7253 9.48763 41.875 10.1191C42.0312 10.7507 42.1094 11.4766 42.1094 12.2969V13.4395H35.2539V11.7207H39.8633V11.4766C39.8503 10.9948 39.7917 10.5814 39.6875 10.2363C39.5833 9.88477 39.4141 9.61784 39.1797 9.43555C38.9518 9.24674 38.6361 9.15234 38.2324 9.15234C37.9395 9.15234 37.679 9.20768 37.4512 9.31836C37.2233 9.42904 37.0345 9.60807 36.8848 9.85547C36.7415 10.1029 36.6309 10.4349 36.5527 10.8516C36.4746 11.2617 36.4355 11.7695 36.4355 12.375V13.3906C36.4355 13.918 36.4811 14.3639 36.5723 14.7285C36.6699 15.0931 36.8132 15.3926 37.002 15.627C37.1908 15.8548 37.4186 16.0241 37.6855 16.1348C37.959 16.2389 38.2747 16.291 38.6328 16.291C39.1602 16.291 39.6126 16.1934 39.9902 15.998C40.3743 15.7962 40.7064 15.5358 40.9863 15.2168L41.9922 16.6133C41.8034 16.8672 41.5495 17.1178 41.2305 17.3652C40.9115 17.6061 40.5241 17.8047 40.0684 17.9609C39.6191 18.1172 39.0918 18.1953 38.4863 18.1953ZM48.8379 15.8516V10.5879C48.8379 10.2233 48.7858 9.93034 48.6816 9.70898C48.584 9.48763 48.4375 9.32812 48.2422 9.23047C48.0534 9.1263 47.8158 9.07422 47.5293 9.07422C47.2298 9.07422 46.9759 9.13607 46.7676 9.25977C46.5658 9.38346 46.4128 9.55273 46.3086 9.76758C46.2044 9.97591 46.1523 10.2168 46.1523 10.4902H43.877C43.877 10.0671 43.9616 9.66016 44.1309 9.26953C44.3066 8.87891 44.5573 8.5306 44.8828 8.22461C45.2083 7.91862 45.6022 7.67773 46.0645 7.50195C46.5267 7.32617 47.041 7.23828 47.6074 7.23828C48.2845 7.23828 48.8867 7.35221 49.4141 7.58008C49.9414 7.80143 50.3548 8.16276 50.6543 8.66406C50.9603 9.15885 51.1133 9.8099 51.1133 10.6172V15.5488C51.1133 16.0371 51.1426 16.4733 51.2012 16.8574C51.2663 17.235 51.3542 17.5638 51.4648 17.8438V18H49.1504C49.0462 17.7461 48.9681 17.4206 48.916 17.0234C48.8639 16.6263 48.8379 16.2357 48.8379 15.8516ZM49.1406 11.5645L49.1504 13.0391H48.0566C47.7311 13.0391 47.4382 13.0846 47.1777 13.1758C46.9173 13.2604 46.696 13.3841 46.5137 13.5469C46.3379 13.7031 46.2012 13.8952 46.1035 14.123C46.0124 14.3509 45.9668 14.6016 45.9668 14.875C45.9668 15.207 46.0124 15.4772 46.1035 15.6855C46.2012 15.8939 46.3411 16.0501 46.5234 16.1543C46.7122 16.252 46.9401 16.3008 47.207 16.3008C47.5716 16.3008 47.8874 16.2227 48.1543 16.0664C48.4277 15.9036 48.6361 15.7083 48.7793 15.4805C48.929 15.2526 48.9876 15.0443 48.9551 14.8555L49.4727 15.8027C49.4206 16.0501 49.3229 16.3105 49.1797 16.584C49.043 16.8574 48.8639 17.1178 48.6426 17.3652C48.4212 17.6126 48.1543 17.8145 47.8418 17.9707C47.5293 18.1204 47.168 18.1953 46.7578 18.1953C46.1654 18.1953 45.638 18.0716 45.1758 17.8242C44.7135 17.5768 44.349 17.222 44.082 16.7598C43.8216 16.291 43.6914 15.7311 43.6914 15.0801C43.6914 14.5527 43.7793 14.0742 43.9551 13.6445C44.1309 13.2148 44.3913 12.847 44.7363 12.541C45.0814 12.2285 45.5143 11.9876 46.0352 11.8184C46.5625 11.6491 47.1777 11.5645 47.8809 11.5645H49.1406ZM57.1973 16.291C57.4902 16.291 57.7507 16.2292 57.9785 16.1055C58.2129 15.9818 58.3984 15.7897 58.5352 15.5293C58.6719 15.2624 58.7467 14.9173 58.7598 14.4941H60.8984C60.8854 15.2428 60.7129 15.8971 60.3809 16.457C60.0488 17.0104 59.6061 17.4401 59.0527 17.7461C58.5059 18.0456 57.8971 18.1953 57.2266 18.1953C56.5299 18.1953 55.9212 18.0846 55.4004 17.8633C54.8861 17.6354 54.4596 17.3066 54.1211 16.877C53.7826 16.4473 53.5286 15.9264 53.3594 15.3145C53.1966 14.696 53.1152 13.9896 53.1152 13.1953V12.2383C53.1152 11.4505 53.1966 10.7474 53.3594 10.1289C53.5286 9.51042 53.7826 8.98633 54.1211 8.55664C54.4596 8.12695 54.8861 7.80143 55.4004 7.58008C55.9147 7.35221 56.5202 7.23828 57.2168 7.23828C57.959 7.23828 58.6003 7.39453 59.1406 7.70703C59.6875 8.01302 60.1139 8.46224 60.4199 9.05469C60.7259 9.64714 60.8854 10.373 60.8984 11.2324H58.7598C58.7467 10.7767 58.6784 10.3958 58.5547 10.0898C58.431 9.77734 58.2552 9.54297 58.0273 9.38672C57.806 9.23047 57.526 9.15234 57.1875 9.15234C56.8164 9.15234 56.5104 9.22396 56.2695 9.36719C56.0352 9.50391 55.8529 9.70573 55.7227 9.97266C55.599 10.2396 55.5111 10.5651 55.459 10.9492C55.4134 11.3268 55.3906 11.7565 55.3906 12.2383V13.1953C55.3906 13.6901 55.4134 14.1296 55.459 14.5137C55.5046 14.8913 55.5892 15.2135 55.7129 15.4805C55.8431 15.7474 56.0286 15.9492 56.2695 16.0859C56.5104 16.2227 56.8197 16.291 57.1973 16.291ZM66.9336 7.43359V9.19141H61.748V7.43359H66.9336ZM63.1641 4.8457H65.4297V15.0508C65.4297 15.3763 65.4655 15.6237 65.5371 15.793C65.6087 15.9622 65.7096 16.0762 65.8398 16.1348C65.9701 16.1934 66.123 16.2227 66.2988 16.2227C66.429 16.2227 66.556 16.2129 66.6797 16.1934C66.8099 16.1673 66.9043 16.1445 66.9629 16.125V17.9609C66.7936 18.026 66.5983 18.0814 66.377 18.127C66.1556 18.1725 65.8887 18.1953 65.5762 18.1953C65.1139 18.1953 64.7005 18.0977 64.3359 17.9023C63.9714 17.707 63.6849 17.3913 63.4766 16.9551C63.2682 16.5189 63.1641 15.9362 63.1641 15.207V4.8457Z" fill="#212121"/>
<g clip-path="url(#clip0_39_202)">
<path d="M73.9929 69.9492C73.0353 69.6207 72.0695 69.3163 71.0965 69.0364C71.26 68.3685 71.4104 67.7088 71.544 67.0606C73.7367 56.4167 72.3032 47.8419 67.4072 45.0186C62.7128 42.312 55.0357 45.1342 47.2823 51.882C46.5181 52.5482 45.7709 53.2336 45.0414 53.9376C44.5531 53.4695 44.0561 53.0105 43.5507 52.5608C35.4247 45.3458 27.2797 42.305 22.3889 45.1363C17.6988 47.8513 16.31 55.9123 18.284 65.9998C18.4804 66.9988 18.7022 67.9927 18.9491 68.9805C17.7962 69.3081 16.6837 69.6568 15.619 70.028C6.09184 73.3497 0.00769043 78.555 0.00769043 83.9545C0.00769043 89.5311 6.5393 95.1245 16.4622 98.5162C17.2667 98.79 18.0778 99.0437 18.895 99.2772C18.6296 100.341 18.394 101.412 18.1884 102.489C16.3065 112.402 17.7761 120.272 22.4536 122.97C27.2846 125.756 35.3931 122.892 43.2881 115.991C43.9283 115.43 44.5544 114.853 45.1659 114.26C45.9559 115.023 46.767 115.763 47.5983 116.48C55.2462 123.06 62.7993 125.718 67.4722 123.013C72.2987 120.219 73.8674 111.764 71.8308 101.477C71.6704 100.671 71.4905 99.8691 71.2913 99.0719C71.8607 98.9032 72.4196 98.7295 72.9644 98.5488C83.2803 95.1312 89.9922 89.6056 89.9922 83.9545C89.9922 78.5354 83.7116 73.2948 73.9929 69.9492ZM71.7556 94.9002C71.2635 95.063 70.7587 95.2201 70.2441 95.373C69.1053 91.7677 67.5685 87.9342 65.6876 83.9731C67.4824 80.1066 68.9601 76.322 70.067 72.7402C70.9876 73.0066 71.8807 73.2874 72.7419 73.5838C81.069 76.4506 86.1482 80.6887 86.1482 83.9545C86.1482 87.4329 80.6627 91.9487 71.7556 94.9002ZM68.0599 102.223C68.9604 106.772 69.0887 110.884 68.4922 114.1C67.9566 116.989 66.8788 118.915 65.546 119.686C62.7104 121.328 56.6459 119.194 50.1055 113.566C49.3323 112.899 48.5778 112.211 47.8429 111.502C50.3786 108.729 52.9126 105.506 55.3858 101.925C59.736 101.539 63.8457 100.908 67.5727 100.047C67.7523 100.768 67.9147 101.494 68.0599 102.223ZM30.6854 119.402C27.9148 120.381 25.7081 120.409 24.3742 119.64C21.5358 118.003 20.3558 111.683 21.9653 103.206C22.1566 102.205 22.3757 101.208 22.6223 100.219C26.3081 101.034 30.388 101.621 34.7484 101.974C37.2384 105.478 39.8455 108.698 42.473 111.518C41.9146 112.058 41.343 112.584 40.7587 113.096C37.2673 116.148 33.7688 118.313 30.6854 119.402ZM17.7058 94.8788C13.318 93.3789 9.69438 91.4299 7.21067 89.3029C4.97863 87.3918 3.85207 85.4941 3.85207 83.9545C3.85207 80.6778 8.73689 76.4984 16.8844 73.6579C17.8731 73.3135 18.908 72.9883 19.9818 72.6832C21.108 76.3459 22.585 80.1755 24.3675 84.048C22.5618 87.9778 21.0637 91.8685 19.9266 95.5744C19.1808 95.3608 18.4403 95.1288 17.7058 94.8788ZM22.0567 65.2612C20.3656 56.6189 21.4887 50.0996 24.3151 48.4633C27.3254 46.7206 33.9821 49.2053 40.9985 55.4354C41.456 55.8425 41.9061 56.258 42.3486 56.6814C39.7341 59.4889 37.1509 62.6851 34.683 66.1678C30.4509 66.56 26.3999 67.1899 22.6754 68.0339C22.4459 67.1151 22.2396 66.1904 22.0567 65.2612ZM60.872 74.846C59.9923 73.3264 59.0799 71.826 58.1356 70.3457C61.0067 70.7088 63.7575 71.1907 66.3407 71.7798C65.5653 74.2657 64.5987 76.8643 63.4608 79.5287C62.6292 77.9507 61.7661 76.3895 60.872 74.846ZM45.0432 59.4288C46.8162 61.3497 48.592 63.4942 50.3386 65.8212C46.7954 65.6539 43.2464 65.6531 39.7032 65.8191C41.4515 63.5136 43.2424 61.3719 45.0432 59.4288ZM29.1128 74.8724C28.2299 76.4035 27.3829 77.9549 26.5725 79.5255C25.4533 76.8707 24.4954 74.26 23.7133 71.7391C26.2807 71.1647 29.0186 70.6951 31.8714 70.3387C30.9165 71.828 29.9967 73.3399 29.1128 74.8724ZM31.9533 97.8437C29.0059 97.5147 26.2269 97.0694 23.6603 96.5105C24.4547 93.9445 25.4336 91.2784 26.577 88.5665C27.3907 90.1383 28.2412 91.6907 29.1279 93.2225C30.0397 94.7973 30.9838 96.3397 31.9533 97.8437ZM45.1493 108.751C43.3272 106.785 41.5099 104.61 39.7352 102.272C41.4582 102.339 43.2147 102.374 45 102.374C46.8341 102.374 48.6471 102.332 50.4317 102.253C48.6795 104.634 46.9104 106.812 45.1493 108.751ZM63.497 88.428C64.6999 91.1698 65.7136 93.8218 66.5186 96.3439C63.9097 96.9393 61.0928 97.4188 58.1247 97.7748C59.0758 96.2671 59.9968 94.7406 60.8871 93.1962C61.7924 91.6264 62.6626 90.0366 63.497 88.428ZM57.5574 91.2756C56.1943 93.6434 54.7546 95.9663 53.2406 98.2406C50.498 98.4348 47.7494 98.5313 45 98.5299C42.1995 98.5299 39.4757 98.4427 36.8528 98.2726C35.2993 96.0036 33.8321 93.6766 32.4545 91.2967C31.0834 88.9293 29.803 86.5108 28.6154 84.0462C29.7999 81.5811 31.0768 79.1614 32.4432 76.7923L32.4429 76.7926C33.8088 74.4229 35.2643 72.1059 36.8061 69.8466C39.4821 69.6441 42.2263 69.5387 44.9996 69.5387C47.7856 69.5387 50.5337 69.6452 53.2089 69.849C54.7352 72.1049 56.1813 74.414 57.5447 76.7719C58.9157 79.1358 60.2095 81.5437 61.4239 83.9917C60.2219 86.4648 58.9323 88.8943 57.5574 91.2756ZM65.4873 48.3487C68.5003 50.0865 69.6722 57.0944 67.779 66.2845C67.6581 66.8708 67.5224 67.468 67.3748 68.0736C63.6412 67.2117 59.5873 66.5709 55.3429 66.1727C52.8704 62.6517 50.3083 59.4506 47.7364 56.6793C48.4105 56.0296 49.1005 55.3967 49.806 54.7812C56.4494 49.0001 62.6584 46.7174 65.4873 48.3487ZM45 75.9191C49.4377 75.9191 53.0353 79.5168 53.0353 83.9545C53.0353 88.3922 49.4377 91.9898 45 91.9898C40.5622 91.9898 36.9646 88.3922 36.9646 83.9545C36.9646 79.5168 40.5622 75.9191 45 75.9191Z" fill="#00D8FF"/>
</g>
<defs>
<clipPath id="clip0_39_202">
<rect width="90" height="80.1425" fill="white" transform="translate(0 44)"/>
</clipPath>
</defs>
</svg>
